<svg width="136" height="34" viewBox="0 0 136 34" fill="none" xmlns="http://www.w3.org/2000/svg">
<path d="M0.93599 4.4639C0.93599 4.1519 0.88799 3.9239 0.79199 3.7799C0.71999 3.6359 0.58799 3.4679 0.39599 3.2759C0.13199 3.0599 -9.76026e-06 2.7959 -9.76026e-06 2.4839C-9.76026e-06 2.3159 0.0119903 2.1839 0.0359903 2.0879C0.15599 1.4879 0.43199 0.995898 0.86399 0.611899C1.31999 0.203899 1.84799 -0.000101566 2.44799 -0.000101566C3.11999 -0.000101566 3.70799 0.215899 4.21199 0.647899H9.10799C12.516 0.647899 15.108 1.3199 16.884 2.6639C18.66 4.0079 19.548 5.9999 19.548 8.6399C19.548 10.7999 18.96 12.5279 17.784 13.8239C16.608 15.0959 14.892 15.8999 12.636 16.2359L18.972 25.8479H13.5L7.41599 16.6319H5.75999V25.8479H0.93599V4.4639ZM9.21599 12.4919C11.04 12.4919 12.396 12.2039 13.284 11.6279C14.196 11.0519 14.652 10.0559 14.652 8.6399C14.652 7.2239 14.196 6.2399 13.284 5.6879C12.396 5.1119 11.04 4.8239 9.21599 4.8239H5.75999V12.4919H9.21599ZM30.4881 26.2079C27.6081 26.2079 25.3281 25.4039 23.6481 23.7959C21.9921 22.1879 21.1641 20.0039 21.1641 17.2439C21.1641 15.4439 21.5001 13.8479 22.1721 12.4559C22.8441 11.0639 23.8401 9.9839 25.1601 9.2159C26.4801 8.4239 28.0761 8.0279 29.9481 8.0279C31.7721 8.0279 33.3561 8.4119 34.7001 9.1799C36.0441 9.9239 37.0641 10.9559 37.7601 12.2759C38.4561 13.5719 38.8041 15.0239 38.8041 16.6319C38.8041 17.4239 38.5401 18.0359 38.0121 18.4679C37.5081 18.8759 36.8001 19.0799 35.8881 19.0799H25.8801C25.8801 20.0639 26.3001 20.8559 27.1401 21.4559C28.0041 22.0559 29.1201 22.3559 30.4881 22.3559C31.6161 22.3559 32.5641 22.1999 33.3321 21.8879C34.1241 21.5519 34.8201 21.0839 35.4201 20.4839L37.7961 23.0039C37.0041 24.0119 35.9841 24.8039 34.7361 25.3799C33.4881 25.9319 32.0721 26.2079 30.4881 26.2079ZM34.0881 15.3719C34.0881 14.3159 33.6921 13.4639 32.9001 12.8159C32.1321 12.1439 31.1481 11.8079 29.9481 11.8079C28.7961 11.8079 27.8241 12.1439 27.0321 12.8159C26.2641 13.4639 25.8801 14.3159 25.8801 15.3719H34.0881ZM48.6025 33.6959C46.4425 33.6959 44.3305 33.1679 42.2665 32.1119L43.6705 28.6919C45.1345 29.4599 46.7785 29.8439 48.6025 29.8439C50.4025 29.8439 51.6625 29.3999 52.3825 28.5119C53.1025 27.6239 53.4625 26.3639 53.4625 24.7319V23.7599C52.8625 24.4079 52.1425 24.9239 51.3025 25.3079C50.4625 25.6679 49.5385 25.8479 48.5305 25.8479C46.0825 25.8479 44.1145 25.0799 42.6265 23.5439C41.1385 21.9839 40.3945 19.7759 40.3945 16.9199C40.3945 15.0239 40.7305 13.4039 41.4025 12.0599C42.0745 10.7159 42.9985 9.6959 44.1745 8.9999C45.3505 8.3039 46.7065 7.9559 48.2425 7.9559C50.5465 7.9559 52.4785 8.8559 54.0385 10.6559C54.1585 9.5999 54.5665 8.6879 55.2625 7.9199L59.1145 9.4319C58.8025 9.9839 58.5745 10.5359 58.4305 11.0879C58.2865 11.6399 58.2145 12.3479 58.2145 13.2119V24.2999C58.2145 27.3719 57.3865 29.6999 55.7305 31.2839C54.0985 32.8919 51.7225 33.6959 48.6025 33.6959ZM49.3585 22.0679C50.7025 22.0679 51.7345 21.5879 52.4545 20.6279C53.1745 19.6439 53.5345 18.4559 53.5345 17.0639V16.7039C53.5345 15.1919 53.1625 13.9919 52.4185 13.1039C51.6985 12.1919 50.6305 11.7359 49.2145 11.7359C47.8945 11.7359 46.8865 12.1799 46.1905 13.0679C45.4945 13.9319 45.1465 15.2159 45.1465 16.9199C45.1465 18.6959 45.4945 20.0039 46.1905 20.8439C46.9105 21.6599 47.9665 22.0679 49.3585 22.0679ZM65.4089 6.4079C64.4729 6.4079 63.6929 6.1199 63.0689 5.5439C62.4689 4.9679 62.1689 4.2359 62.1689 3.3479C62.1689 2.4599 62.4689 1.7279 63.0689 1.1519C63.6929 0.575899 64.4729 0.287899 65.4089 0.287899C66.3449 0.287899 67.1129 0.575899 67.7129 1.1519C68.3369 1.7279 68.6489 2.4599 68.6489 3.3479C68.6489 4.2359 68.3369 4.9679 67.7129 5.5439C67.1129 6.1199 66.3449 6.4079 65.4089 6.4079ZM63.0329 8.3879H67.7849V25.8479H63.0329V8.3879ZM80.4667 26.2079C78.7627 26.2079 77.1547 25.9079 75.6427 25.3079C74.1547 24.6839 72.8467 23.7959 71.7187 22.6439L74.3827 19.7999C75.1987 20.6639 76.1227 21.3239 77.1547 21.7799C78.1867 22.2359 79.2907 22.4639 80.4667 22.4639C81.2107 22.4639 81.7747 22.3559 82.1587 22.1399C82.5427 21.8999 82.7347 21.5759 82.7347 21.1679C82.7347 20.8559 82.6507 20.5919 82.4827 20.3759C82.3387 20.1599 82.0027 19.9319 81.4747 19.6919C80.9467 19.4519 80.1427 19.1639 79.0627 18.8279C76.6867 18.0839 75.0067 17.2799 74.0227 16.4159C73.0387 15.5279 72.5467 14.3759 72.5467 12.9599C72.5467 11.3999 73.1707 10.1879 74.4187 9.3239C75.6667 8.4599 77.4187 8.0279 79.6747 8.0279C82.2187 8.0279 84.5107 8.7479 86.5507 10.1879L84.9307 13.2839C83.9227 12.7319 83.0107 12.3479 82.1947 12.1319C81.3787 11.8919 80.5267 11.7719 79.6387 11.7719C78.8467 11.7719 78.2587 11.8799 77.8747 12.0959C77.4907 12.2879 77.2987 12.5759 77.2987 12.9599C77.2987 13.2719 77.3947 13.5359 77.5867 13.7519C77.8027 13.9439 78.1627 14.1479 78.6667 14.3639C79.1707 14.5799 79.9387 14.8439 80.9707 15.1559C82.6027 15.6599 83.8747 16.1759 84.7867 16.7039C85.7227 17.2319 86.4067 17.8559 86.8387 18.5759C87.2707 19.2959 87.4867 20.1959 87.4867 21.2759C87.4867 22.7639 86.8627 23.9639 85.6147 24.8759C84.3667 25.7639 82.6507 26.2079 80.4667 26.2079ZM97.1859 26.1719C95.4819 26.1719 94.1739 25.7039 93.2619 24.7679C92.3739 23.8319 91.9299 22.4879 91.9299 20.7359V12.2039H88.7259L89.7339 8.3879H92.0019V4.7519L96.6099 2.6279V8.3879H101.29L100.354 12.2039H96.6819V20.8439C96.6819 21.3959 96.8019 21.7919 97.0419 22.0319C97.2819 22.2719 97.6539 22.3919 98.1579 22.3919C98.7579 22.3919 99.2979 22.2719 99.7779 22.0319L100.894 25.4519C100.486 25.6439 99.9219 25.8119 99.2019 25.9559C98.5059 26.0999 97.8339 26.1719 97.1859 26.1719ZM111.875 26.2079C108.995 26.2079 106.715 25.4039 105.035 23.7959C103.379 22.1879 102.551 20.0039 102.551 17.2439C102.551 15.4439 102.887 13.8479 103.559 12.4559C104.231 11.0639 105.227 9.9839 106.547 9.2159C107.867 8.4239 109.463 8.0279 111.335 8.0279C113.159 8.0279 114.743 8.4119 116.087 9.1799C117.431 9.9239 118.451 10.9559 119.147 12.2759C119.843 13.5719 120.191 15.0239 120.191 16.6319C120.191 17.4239 119.927 18.0359 119.399 18.4679C118.895 18.8759 118.187 19.0799 117.275 19.0799H107.267C107.267 20.0639 107.687 20.8559 108.527 21.4559C109.391 22.0559 110.507 22.3559 111.875 22.3559C113.003 22.3559 113.951 22.1999 114.719 21.8879C115.511 21.5519 116.207 21.0839 116.807 20.4839L119.183 23.0039C118.391 24.0119 117.371 24.8039 116.123 25.3799C114.875 25.9319 113.459 26.2079 111.875 26.2079ZM115.475 15.3719C115.475 14.3159 115.079 13.4639 114.287 12.8159C113.519 12.1439 112.535 11.8079 111.335 11.8079C110.183 11.8079 109.211 12.1439 108.419 12.8159C107.651 13.4639 107.267 14.3159 107.267 15.3719H115.475ZM123.487 13.2839C123.487 12.5639 123.427 11.9399 123.307 11.4119C123.211 10.8839 123.007 10.2959 122.695 9.6479L126.907 8.0279C127.123 8.4119 127.315 8.8679 127.483 9.3959C127.675 9.9239 127.783 10.3799 127.807 10.7639C128.455 9.8519 129.127 9.1679 129.823 8.7119C130.543 8.2559 131.359 8.0279 132.271 8.0279C132.991 8.0279 133.615 8.1239 134.143 8.3159C134.695 8.5079 135.271 8.8319 135.871 9.2879L134.107 12.5639C133.699 12.3239 133.327 12.1559 132.991 12.0599C132.655 11.9399 132.283 11.8799 131.875 11.8799C130.627 11.8799 129.703 12.2639 129.103 13.0319C128.527 13.7999 128.239 14.9639 128.239 16.5239V25.8479H123.487V13.2839Z" fill="url(#paint0_linear_24_867)"/>
<defs>
<linearGradient id="paint0_linear_24_867" x1="-1.26001" y1="25.8479" x2="173.065" y2="41.8697" gradientUnits="userSpaceOnUse">
<stop stop-color="#1D8D94"/>
<stop offset="1" stop-color="#91D2A3"/>
</linearGradient>
</defs>
</svg>
