<svg width="88" height="34" viewBox="0 0 88 34" fill="none" xmlns="http://www.w3.org/2000/svg">
<path d="M2.30399 25.9201C1.82399 25.9201 1.36799 25.7281 0.93599 25.3441C0.52799 24.9361 0.23999 24.4681 0.0719903 23.9401C0.0239902 23.7961 -9.76026e-06 23.6881 -9.76026e-06 23.6161C-9.76026e-06 23.4961 0.0359903 23.3881 0.10799 23.2921C0.17999 23.1721 0.26399 23.0641 0.35999 22.9681C0.57599 22.7761 0.74399 22.5481 0.86399 22.2841C1.00799 21.9961 1.07999 21.6001 1.07999 21.0961V0.360057H5.90399V21.3841H16.704V25.5601H3.77999C3.34799 25.8001 2.85599 25.9201 2.30399 25.9201ZM26.9288 25.9561C25.1288 25.9561 23.5448 25.5841 22.1768 24.8401C20.8328 24.0721 19.7888 23.0041 19.0448 21.6361C18.3248 20.2441 17.9648 18.6481 17.9648 16.8481C17.9648 15.0481 18.3248 13.4641 19.0448 12.0961C19.7888 10.7041 20.8328 9.63606 22.1768 8.89206C23.5448 8.12406 25.1288 7.74006 26.9288 7.74006C28.7288 7.74006 30.3008 8.12406 31.6448 8.89206C33.0128 9.63606 34.0568 10.7041 34.7768 12.0961C35.5208 13.4641 35.8928 15.0481 35.8928 16.8481C35.8928 18.6481 35.5208 20.2441 34.7768 21.6361C34.0568 23.0041 33.0128 24.0721 31.6448 24.8401C30.3008 25.5841 28.7288 25.9561 26.9288 25.9561ZM26.9288 22.1041C28.2968 22.1041 29.3288 21.6481 30.0248 20.7361C30.7208 19.8001 31.0688 18.5041 31.0688 16.8481C31.0688 15.1921 30.7208 13.9081 30.0248 12.9961C29.3288 12.0601 28.2968 11.5921 26.9288 11.5921C25.5608 11.5921 24.5288 12.0601 23.8328 12.9961C23.1368 13.9081 22.7888 15.1921 22.7888 16.8481C22.7888 18.5041 23.1368 19.8001 23.8328 20.7361C24.5288 21.6481 25.5608 22.1041 26.9288 22.1041ZM46.6338 33.4081C44.4738 33.4081 42.3618 32.8801 40.2978 31.8241L41.7018 28.4041C43.1658 29.1721 44.8098 29.5561 46.6338 29.5561C48.4338 29.5561 49.6938 29.1121 50.4138 28.2241C51.1338 27.3361 51.4938 26.0761 51.4938 24.4441V23.4721C50.8938 24.1201 50.1738 24.6361 49.3338 25.0201C48.4938 25.3801 47.5698 25.5601 46.5618 25.5601C44.1138 25.5601 42.1458 24.7921 40.6578 23.2561C39.1698 21.6961 38.4258 19.4881 38.4258 16.6321C38.4258 14.7361 38.7618 13.1161 39.4338 11.7721C40.1058 10.4281 41.0298 9.40806 42.2058 8.71206C43.3818 8.01606 44.7378 7.66806 46.2738 7.66806C48.5778 7.66806 50.5098 8.56806 52.0698 10.3681C52.1898 9.31206 52.5978 8.40006 53.2938 7.63206L57.1458 9.14406C56.8338 9.69606 56.6058 10.2481 56.4618 10.8001C56.3178 11.3521 56.2458 12.0601 56.2458 12.9241V24.0121C56.2458 27.0841 55.4178 29.4121 53.7618 30.9961C52.1298 32.6041 49.7538 33.4081 46.6338 33.4081ZM47.3898 21.7801C48.7338 21.7801 49.7658 21.3001 50.4858 20.3401C51.2058 19.3561 51.5658 18.1681 51.5658 16.7761V16.4161C51.5658 14.9041 51.1938 13.7041 50.4498 12.8161C49.7298 11.9041 48.6618 11.4481 47.2458 11.4481C45.9258 11.4481 44.9178 11.8921 44.2218 12.7801C43.5258 13.6441 43.1778 14.9281 43.1778 16.6321C43.1778 18.4081 43.5258 19.7161 44.2218 20.5561C44.9418 21.3721 45.9978 21.7801 47.3898 21.7801ZM63.4401 6.12006C62.5041 6.12006 61.7241 5.83206 61.1001 5.25606C60.5001 4.68006 60.2001 3.94806 60.2001 3.06006C60.2001 2.17206 60.5001 1.44006 61.1001 0.864057C61.7241 0.288057 62.5041 5.72205e-05 63.4401 5.72205e-05C64.3761 5.72205e-05 65.1441 0.288057 65.7441 0.864057C66.3681 1.44006 66.6801 2.17206 66.6801 3.06006C66.6801 3.94806 66.3681 4.68006 65.7441 5.25606C65.1441 5.83206 64.3761 6.12006 63.4401 6.12006ZM61.0641 8.10006H65.8161V25.5601H61.0641V8.10006ZM83.466 25.9201C83.058 25.2001 82.758 24.4561 82.566 23.6881C82.398 22.8961 82.314 22.0081 82.314 21.0241V15.2281C82.314 12.8041 81.306 11.5921 79.29 11.5921C78.09 11.5921 77.118 12.0601 76.374 12.9961C75.654 13.9321 75.294 15.1201 75.294 16.5601V25.5601H70.542V12.9961C70.542 12.2761 70.482 11.6521 70.362 11.1241C70.266 10.5961 70.062 10.0081 69.75 9.36006L73.962 7.74006C74.178 8.12406 74.37 8.58006 74.538 9.10806C74.73 9.63606 74.838 10.0921 74.862 10.4761C75.558 9.66006 76.41 9.00006 77.418 8.49606C78.45 7.99206 79.542 7.74006 80.694 7.74006C82.926 7.74006 84.546 8.38806 85.554 9.68406C86.562 10.9561 87.066 12.8041 87.066 15.2281V20.9161C87.066 22.2361 87.306 23.3761 87.786 24.3361L83.466 25.9201Z" fill="url(#paint0_linear_24_829)"/>
<defs>
<linearGradient id="paint0_linear_24_829" x1="-1.26001" y1="25.5601" x2="114.24" y2="32.5601" gradientUnits="userSpaceOnUse">
<stop stop-color="#1D8D94"/>
<stop offset="1" stop-color="#91D2A3"/>
</linearGradient>
</defs>
</svg>
