<svg width="232" height="65" viewBox="0 0 232 65" fill="none" xmlns="http://www.w3.org/2000/svg">
<g filter="url(#filter0_i_22_814)">
<path d="M8.04831 0V16.5688C8.04831 16.7615 7.99263 16.9501 7.88798 17.1119L0 29.3073L25.6232 14.8992L4.27053 65L27.1014 44.0428L28.868 44.2974C45.9104 46.7535 59.0063 29.5116 52.0676 13.7531L38.1063 26.0327L54.6957 1.63728L45.8261 4.91184C43.0027 1.78473 38.9868 0 34.7736 0H34.657H8.04831Z" fill="url(#paint0_linear_22_814)"/>
</g>
<path d="M61.2 25H69.6C71 25 72.0133 25.32 72.64 25.96C73.28 26.5867 73.6 27.6 73.6 29V31C73.6 32.4 73.28 33.42 72.64 34.06C72.0133 34.6867 71 35 69.6 35H64.8V39H61.2V25ZM70 29C70 28.2 69.6 27.8 68.8 27.8H64.8V32.2H68.8C69.6 32.2 70 31.8 70 31V29ZM91.3992 31.2L88.5992 36.2H85.7992L82.9992 31.2V39H79.3992V25H83.1992L87.1992 32.4L91.1992 25H94.9992V39H91.3992V31.2ZM110.407 25H114.007V35.2C114.007 36.6 113.687 37.62 113.047 38.26C112.42 38.8867 111.407 39.2 110.007 39.2H105.407C104.007 39.2 102.987 38.8867 102.347 38.26C101.72 37.62 101.407 36.6 101.407 35.2V25H105.007V35.2C105.007 36 105.407 36.4 106.207 36.4H109.207C110.007 36.4 110.407 36 110.407 35.2V25ZM119.987 36.1C123.64 36.3 126.114 36.4 127.407 36.4C127.714 36.4 127.954 36.3133 128.127 36.14C128.314 35.9533 128.407 35.7067 128.407 35.4V33.6H123.807C122.407 33.6 121.387 33.2867 120.747 32.66C120.12 32.02 119.807 31 119.807 29.6V29C119.807 27.6 120.12 26.5867 120.747 25.96C121.387 25.32 122.407 25 123.807 25H130.827V27.8H124.607C123.807 27.8 123.407 28.2 123.407 29V29.4C123.407 30.2 123.807 30.6 124.607 30.6H128.207C129.514 30.6 130.474 30.9067 131.087 31.52C131.7 32.1333 132.007 33.0933 132.007 34.4V35.4C132.007 36.7067 131.7 37.6667 131.087 38.28C130.474 38.8933 129.514 39.2 128.207 39.2C127.527 39.2 126.807 39.1867 126.047 39.16L124.207 39.08C122.847 39.0133 121.44 38.92 119.987 38.8V36.1ZM145.605 25C147.112 25 148.252 25.3933 149.025 26.18C149.812 26.9533 150.205 28.0933 150.205 29.6V34.4C150.205 35.9067 149.812 37.0533 149.025 37.84C148.252 38.6133 147.112 39 145.605 39H137.805V25H145.605ZM146.605 29.6C146.605 28.4 146.005 27.8 144.805 27.8H141.405V36.2H144.805C146.005 36.2 146.605 35.6 146.605 34.4V29.6ZM162.609 39H159.009V27.8H154.809V25H166.809V27.8H162.609V39ZM170.01 36H173.61V39H170.01V36ZM190.215 38.8C187.242 39.0667 184.775 39.2 182.815 39.2C181.508 39.2 180.548 38.8933 179.935 38.28C179.322 37.6667 179.015 36.7067 179.015 35.4V29C179.015 27.6 179.328 26.5867 179.955 25.96C180.595 25.32 181.615 25 183.015 25H190.215V27.8H183.815C183.015 27.8 182.615 28.2 182.615 29V35.4C182.615 35.7067 182.702 35.9533 182.875 36.14C183.062 36.3133 183.295 36.4 183.575 36.4C183.855 36.4 184.162 36.4 184.495 36.4C184.828 36.3867 185.175 36.3733 185.535 36.36C185.895 36.3467 186.255 36.3333 186.615 36.32C186.988 36.3067 187.462 36.28 188.035 36.24C188.622 36.2 189.348 36.1533 190.215 36.1V38.8ZM204.817 28.8C204.817 28 204.417 27.6 203.617 27.6H200.217C199.417 27.6 199.017 28 199.017 28.8V35.2C199.017 36 199.417 36.4 200.217 36.4H203.617C204.417 36.4 204.817 36 204.817 35.2V28.8ZM208.417 35.2C208.417 36.6 208.097 37.62 207.457 38.26C206.831 38.8867 205.817 39.2 204.417 39.2H199.417C198.017 39.2 196.997 38.8867 196.357 38.26C195.731 37.62 195.417 36.6 195.417 35.2V28.8C195.417 27.4 195.731 26.3867 196.357 25.76C196.997 25.12 198.017 24.8 199.417 24.8H204.417C205.817 24.8 206.831 25.12 207.457 25.76C208.097 26.3867 208.417 27.4 208.417 28.8V35.2ZM226.427 31.2L223.627 36.2H220.827L218.027 31.2V39H214.427V25H218.227L222.227 32.4L226.227 25H230.027V39H226.427V31.2Z" fill="url(#paint1_linear_22_814)"/>
<defs>
<filter id="filter0_i_22_814" x="0" y="-8" width="54.6957" height="73" filterUnits="userSpaceOnUse" color-interpolation-filters="sRGB">
<feFlood flood-opacity="0" result="BackgroundImageFix"/>
<feBlend mode="normal" in="SourceGraphic" in2="BackgroundImageFix" result="shape"/>
<feColorMatrix in="SourceAlpha" type="matrix" values="0 0 0 0 0 0 0 0 0 0 0 0 0 0 0 0 0 0 127 0" result="hardAlpha"/>
<feOffset dy="-10"/>
<feGaussianBlur stdDeviation="4"/>
<feComposite in2="hardAlpha" operator="arithmetic" k2="-1" k3="1"/>
<feColorMatrix type="matrix" values="0 0 0 0 0 0 0 0 0 0 0 0 0 0 0 0 0 0 0.25 0"/>
<feBlend mode="normal" in2="shape" result="effect1_innerShadow_22_814"/>
</filter>
<linearGradient id="paint0_linear_22_814" x1="34" y1="0" x2="34" y2="65" gradientUnits="userSpaceOnUse">
<stop stop-color="#9CDBA6"/>
<stop offset="1" stop-color="#088395"/>
</linearGradient>
<linearGradient id="paint1_linear_22_814" x1="112.53" y1="33.2791" x2="232" y2="33.0855" gradientUnits="userSpaceOnUse">
<stop stop-color="#1D8D94"/>
<stop offset="1" stop-color="#99D9A6"/>
</linearGradient>
</defs>
</svg>
