<svg width="269" height="35" viewBox="0 0 269 35" fill="none" xmlns="http://www.w3.org/2000/svg">
<path d="M1.08023 5.68807C1.08023 5.18407 1.00823 4.80007 0.864235 4.53607C0.744234 4.24807 0.576234 4.00807 0.360234 3.81607C0.264234 3.72007 0.180234 3.62407 0.108234 3.52807C0.0362344 3.40807 0.00023438 3.28807 0.00023438 3.16807C0.00023438 3.09607 0.0242344 2.98807 0.0722344 2.84407C0.264234 2.29207 0.576234 1.77607 1.00823 1.29607C1.46423 0.816071 1.93223 0.57607 2.41223 0.57607C2.94023 0.57607 3.39623 0.79207 3.78023 1.22407H17.0642V5.40007H5.90423V11.7001H14.0402V15.6601H5.90423V26.4241H1.08023V5.68807ZM26.1908 26.8201C24.3908 26.8201 22.8068 26.4481 21.4388 25.7041C20.0948 24.9361 19.0508 23.8681 18.3068 22.5001C17.5868 21.1081 17.2268 19.5121 17.2268 17.7121C17.2268 15.9121 17.5868 14.3281 18.3068 12.9601C19.0508 11.5681 20.0948 10.5001 21.4388 9.75607C22.8068 8.98807 24.3908 8.60407 26.1908 8.60407C27.9908 8.60407 29.5628 8.98807 30.9068 9.75607C32.2748 10.5001 33.3188 11.5681 34.0388 12.9601C34.7828 14.3281 35.1548 15.9121 35.1548 17.7121C35.1548 19.5121 34.7828 21.1081 34.0388 22.5001C33.3188 23.8681 32.2748 24.9361 30.9068 25.7041C29.5628 26.4481 27.9908 26.8201 26.1908 26.8201ZM26.1908 22.9681C27.5588 22.9681 28.5908 22.5121 29.2868 21.6001C29.9828 20.6641 30.3308 19.3681 30.3308 17.7121C30.3308 16.0561 29.9828 14.7721 29.2868 13.8601C28.5908 12.9241 27.5588 12.4561 26.1908 12.4561C24.8228 12.4561 23.7908 12.9241 23.0948 13.8601C22.3988 14.7721 22.0508 16.0561 22.0508 17.7121C22.0508 19.3681 22.3988 20.6641 23.0948 21.6001C23.7908 22.5121 24.8228 22.9681 26.1908 22.9681ZM38.4797 13.8601C38.4797 13.1401 38.4197 12.5161 38.2997 11.9881C38.2037 11.4601 37.9997 10.8721 37.6877 10.2241L41.8997 8.60407C42.1157 8.98807 42.3077 9.44407 42.4757 9.97207C42.6677 10.5001 42.7757 10.9561 42.7997 11.3401C43.4477 10.4281 44.1197 9.74407 44.8157 9.28807C45.5357 8.83207 46.3517 8.60407 47.2637 8.60407C47.9837 8.60407 48.6077 8.70007 49.1357 8.89207C49.6877 9.08407 50.2637 9.40807 50.8637 9.86407L49.0997 13.1401C48.6917 12.9001 48.3197 12.7321 47.9837 12.6361C47.6477 12.5161 47.2757 12.4561 46.8677 12.4561C45.6197 12.4561 44.6957 12.8401 44.0957 13.6081C43.5197 14.3761 43.2317 15.5401 43.2317 17.1001V26.4241H38.4797V13.8601ZM59.2551 34.2721C57.0951 34.2721 54.9831 33.7441 52.9191 32.6881L54.3231 29.2681C55.7871 30.0361 57.4311 30.4201 59.2551 30.4201C61.0551 30.4201 62.3151 29.9761 63.0351 29.0881C63.7551 28.2001 64.1151 26.9401 64.1151 25.3081V24.3361C63.5151 24.9841 62.7951 25.5001 61.9551 25.8841C61.1151 26.2441 60.1911 26.4241 59.1831 26.4241C56.7351 26.4241 54.7671 25.6561 53.2791 24.1201C51.7911 22.5601 51.0471 20.3521 51.0471 17.4961C51.0471 15.6001 51.3831 13.9801 52.0551 12.6361C52.7271 11.2921 53.6511 10.2721 54.8271 9.57607C56.0031 8.88007 57.3591 8.53207 58.8951 8.53207C61.1991 8.53207 63.1311 9.43207 64.6911 11.2321C64.8111 10.1761 65.2191 9.26407 65.9151 8.49607L69.7671 10.0081C69.4551 10.5601 69.2271 11.1121 69.0831 11.6641C68.9391 12.2161 68.8671 12.9241 68.8671 13.7881V24.8761C68.8671 27.9481 68.0391 30.2761 66.3831 31.8601C64.7511 33.4681 62.3751 34.2721 59.2551 34.2721ZM60.0111 22.6441C61.3551 22.6441 62.3871 22.1641 63.1071 21.2041C63.8271 20.2201 64.1871 19.0321 64.1871 17.6401V17.2801C64.1871 15.7681 63.8151 14.5681 63.0711 13.6801C62.3511 12.7681 61.2831 12.3121 59.8671 12.3121C58.5471 12.3121 57.5391 12.7561 56.8431 13.6441C56.1471 14.5081 55.7991 15.7921 55.7991 17.4961C55.7991 19.2721 56.1471 20.5801 56.8431 21.4201C57.5631 22.2361 58.6191 22.6441 60.0111 22.6441ZM81.6055 26.7841C78.7255 26.7841 76.4455 25.9801 74.7655 24.3721C73.1095 22.7641 72.2815 20.5801 72.2815 17.8201C72.2815 16.0201 72.6175 14.4241 73.2895 13.0321C73.9615 11.6401 74.9575 10.5601 76.2775 9.79207C77.5975 9.00007 79.1935 8.60407 81.0655 8.60407C82.8895 8.60407 84.4735 8.98807 85.8175 9.75607C87.1615 10.5001 88.1815 11.5321 88.8775 12.8521C89.5735 14.1481 89.9215 15.6001 89.9215 17.2081C89.9215 18.0001 89.6575 18.6121 89.1295 19.0441C88.6255 19.4521 87.9175 19.6561 87.0055 19.6561H76.9975C76.9975 20.6401 77.4175 21.4321 78.2575 22.0321C79.1215 22.6321 80.2375 22.9321 81.6055 22.9321C82.7335 22.9321 83.6815 22.7761 84.4495 22.4641C85.2415 22.1281 85.9375 21.6601 86.5375 21.0601L88.9135 23.5801C88.1215 24.5881 87.1015 25.3801 85.8535 25.9561C84.6055 26.5081 83.1895 26.7841 81.6055 26.7841ZM85.2055 15.9481C85.2055 14.8921 84.8095 14.0401 84.0175 13.3921C83.2495 12.7201 82.2655 12.3841 81.0655 12.3841C79.9135 12.3841 78.9415 12.7201 78.1495 13.3921C77.3815 14.0401 76.9975 14.8921 76.9975 15.9481H85.2055ZM99.612 26.7481C97.908 26.7481 96.6 26.2801 95.688 25.3441C94.8 24.4081 94.356 23.0641 94.356 21.3121V12.7801H91.152L92.16 8.96407H94.428V5.32807L99.036 3.20407V8.96407H103.716L102.78 12.7801H99.108V21.4201C99.108 21.9721 99.228 22.3681 99.468 22.6081C99.708 22.8481 100.08 22.9681 100.584 22.9681C101.184 22.9681 101.724 22.8481 102.204 22.6081L103.32 26.0281C102.912 26.2201 102.348 26.3881 101.628 26.5321C100.932 26.6761 100.26 26.7481 99.612 26.7481ZM116.108 5.04007C116.108 4.53607 115.94 4.14007 115.604 3.85207C115.46 3.70807 115.352 3.58807 115.28 3.49207C115.208 3.37207 115.172 3.20407 115.172 2.98807C115.172 2.84407 115.184 2.73607 115.208 2.66407C115.328 2.06407 115.604 1.57207 116.036 1.18807C116.492 0.780071 117.02 0.57607 117.62 0.57607C118.292 0.57607 118.88 0.79207 119.384 1.22407H124.28C127.64 1.22407 130.22 1.98007 132.02 3.49207C133.82 4.98007 134.72 7.06807 134.72 9.75607C134.72 12.4441 133.844 14.5441 132.092 16.0561C130.34 17.5681 127.808 18.3241 124.496 18.3241H120.932V26.4241H116.108V5.04007ZM124.388 14.1481C126.14 14.1481 127.484 13.7881 128.42 13.0681C129.356 12.3241 129.824 11.2201 129.824 9.75607C129.824 8.31607 129.356 7.23607 128.42 6.51607C127.484 5.77207 126.14 5.40007 124.388 5.40007H120.932V14.1481H124.388ZM143.409 26.7841C141.921 26.7841 140.589 26.4361 139.413 25.7401C138.237 25.0441 137.313 24.0361 136.641 22.7161C135.969 21.3961 135.633 19.8241 135.633 18.0001C135.633 16.0561 135.969 14.3761 136.641 12.9601C137.337 11.5441 138.297 10.4641 139.521 9.72007C140.769 8.97607 142.221 8.60407 143.877 8.60407C145.821 8.60407 147.441 9.33607 148.737 10.8001V8.96407H153.309V21.5281C153.309 22.3681 153.381 23.0641 153.525 23.6161C153.669 24.1681 153.897 24.7201 154.209 25.2721L150.357 26.7841C149.637 25.9921 149.229 25.0921 149.133 24.0841H149.061C148.389 24.9481 147.561 25.6201 146.577 26.1001C145.617 26.5561 144.561 26.7841 143.409 26.7841ZM144.381 23.0041C145.773 23.0041 146.829 22.5601 147.549 21.6721C148.269 20.7601 148.629 19.5481 148.629 18.0361V17.3881C148.629 15.9961 148.269 14.8201 147.549 13.8601C146.853 12.8761 145.845 12.3841 144.525 12.3841C143.181 12.3841 142.149 12.8641 141.429 13.8241C140.733 14.7841 140.385 16.1761 140.385 18.0001C140.385 19.6321 140.721 20.8801 141.393 21.7441C142.089 22.5841 143.085 23.0041 144.381 23.0041ZM165.475 26.7841C163.771 26.7841 162.163 26.4841 160.651 25.8841C159.163 25.2601 157.855 24.3721 156.727 23.2201L159.391 20.3761C160.207 21.2401 161.131 21.9001 162.163 22.3561C163.195 22.8121 164.299 23.0401 165.475 23.0401C166.219 23.0401 166.783 22.9321 167.167 22.7161C167.551 22.4761 167.743 22.1521 167.743 21.7441C167.743 21.4321 167.659 21.1681 167.491 20.9521C167.347 20.7361 167.011 20.5081 166.483 20.2681C165.955 20.0281 165.151 19.7401 164.071 19.4041C161.695 18.6601 160.015 17.8561 159.031 16.9921C158.047 16.1041 157.555 14.9521 157.555 13.5361C157.555 11.9761 158.179 10.7641 159.427 9.90007C160.675 9.03607 162.427 8.60407 164.683 8.60407C167.227 8.60407 169.519 9.32407 171.559 10.7641L169.939 13.8601C168.931 13.3081 168.019 12.9241 167.203 12.7081C166.387 12.4681 165.535 12.3481 164.647 12.3481C163.855 12.3481 163.267 12.4561 162.883 12.6721C162.499 12.8641 162.307 13.1521 162.307 13.5361C162.307 13.8481 162.403 14.1121 162.595 14.3281C162.811 14.5201 163.171 14.7241 163.675 14.9401C164.179 15.1561 164.947 15.4201 165.979 15.7321C167.611 16.2361 168.883 16.7521 169.795 17.2801C170.731 17.8081 171.415 18.4321 171.847 19.1521C172.279 19.8721 172.495 20.7721 172.495 21.8521C172.495 23.3401 171.871 24.5401 170.623 25.4521C169.375 26.3401 167.659 26.7841 165.475 26.7841ZM182.842 26.7841C181.138 26.7841 179.53 26.4841 178.018 25.8841C176.53 25.2601 175.222 24.3721 174.094 23.2201L176.758 20.3761C177.574 21.2401 178.498 21.9001 179.53 22.3561C180.562 22.8121 181.666 23.0401 182.842 23.0401C183.586 23.0401 184.15 22.9321 184.534 22.7161C184.918 22.4761 185.11 22.1521 185.11 21.7441C185.11 21.4321 185.026 21.1681 184.858 20.9521C184.714 20.7361 184.378 20.5081 183.85 20.2681C183.322 20.0281 182.518 19.7401 181.438 19.4041C179.062 18.6601 177.382 17.8561 176.398 16.9921C175.414 16.1041 174.922 14.9521 174.922 13.5361C174.922 11.9761 175.546 10.7641 176.794 9.90007C178.042 9.03607 179.794 8.60407 182.05 8.60407C184.594 8.60407 186.886 9.32407 188.926 10.7641L187.306 13.8601C186.298 13.3081 185.386 12.9241 184.57 12.7081C183.754 12.4681 182.902 12.3481 182.014 12.3481C181.222 12.3481 180.634 12.4561 180.25 12.6721C179.866 12.8641 179.674 13.1521 179.674 13.5361C179.674 13.8481 179.77 14.1121 179.962 14.3281C180.178 14.5201 180.538 14.7241 181.042 14.9401C181.546 15.1561 182.314 15.4201 183.346 15.7321C184.978 16.2361 186.25 16.7521 187.162 17.2801C188.098 17.8081 188.782 18.4321 189.214 19.1521C189.646 19.8721 189.862 20.7721 189.862 21.8521C189.862 23.3401 189.238 24.5401 187.99 25.4521C186.742 26.3401 185.026 26.7841 182.842 26.7841ZM197.626 26.7841C196.882 26.7841 196.318 26.6281 195.934 26.3161C195.574 26.0041 195.394 25.5601 195.394 24.9841C195.394 24.7681 195.406 24.6001 195.43 24.4801L195.466 24.2641L191.11 8.96407H196.006L198.238 19.2961L201.01 9.72007C201.13 9.33607 201.358 9.06007 201.694 8.89207C202.03 8.70007 202.522 8.60407 203.17 8.60407C204.01 8.60407 204.598 8.73607 204.934 9.00007C205.294 9.26407 205.474 9.66007 205.474 10.1881C205.474 10.4281 205.462 10.6081 205.438 10.7281L205.294 11.5201L207.49 19.2961L209.686 8.96407H214.582L210.226 24.2641L210.262 24.4801C210.286 24.6001 210.298 24.7681 210.298 24.9841C210.298 25.5601 210.106 26.0041 209.722 26.3161C209.362 26.6281 208.81 26.7841 208.066 26.7841C207.298 26.7841 206.722 26.6521 206.338 26.3881C205.954 26.1241 205.69 25.7281 205.546 25.2001L202.846 15.6961L200.146 25.2001C200.002 25.7281 199.738 26.1241 199.354 26.3881C198.97 26.6521 198.394 26.7841 197.626 26.7841ZM224.437 26.8201C222.637 26.8201 221.053 26.4481 219.685 25.7041C218.341 24.9361 217.297 23.8681 216.553 22.5001C215.833 21.1081 215.473 19.5121 215.473 17.7121C215.473 15.9121 215.833 14.3281 216.553 12.9601C217.297 11.5681 218.341 10.5001 219.685 9.75607C221.053 8.98807 222.637 8.60407 224.437 8.60407C226.237 8.60407 227.809 8.98807 229.153 9.75607C230.521 10.5001 231.565 11.5681 232.285 12.9601C233.029 14.3281 233.401 15.9121 233.401 17.7121C233.401 19.5121 233.029 21.1081 232.285 22.5001C231.565 23.8681 230.521 24.9361 229.153 25.7041C227.809 26.4481 226.237 26.8201 224.437 26.8201ZM224.437 22.9681C225.805 22.9681 226.837 22.5121 227.533 21.6001C228.229 20.6641 228.577 19.3681 228.577 17.7121C228.577 16.0561 228.229 14.7721 227.533 13.8601C226.837 12.9241 225.805 12.4561 224.437 12.4561C223.069 12.4561 222.037 12.9241 221.341 13.8601C220.645 14.7721 220.297 16.0561 220.297 17.7121C220.297 19.3681 220.645 20.6641 221.341 21.6001C222.037 22.5121 223.069 22.9681 224.437 22.9681ZM236.726 13.8601C236.726 13.1401 236.666 12.5161 236.546 11.9881C236.45 11.4601 236.246 10.8721 235.934 10.2241L240.146 8.60407C240.362 8.98807 240.554 9.44407 240.722 9.97207C240.914 10.5001 241.022 10.9561 241.046 11.3401C241.694 10.4281 242.366 9.74407 243.062 9.28807C243.782 8.83207 244.598 8.60407 245.51 8.60407C246.23 8.60407 246.854 8.70007 247.382 8.89207C247.934 9.08407 248.51 9.40807 249.11 9.86407L247.346 13.1401C246.938 12.9001 246.566 12.7321 246.23 12.6361C245.894 12.5161 245.522 12.4561 245.114 12.4561C243.866 12.4561 242.942 12.8401 242.342 13.6081C241.766 14.3761 241.478 15.5401 241.478 17.1001V26.4241H236.726V13.8601ZM264.161 26.8201C263.465 26.0521 263.057 25.1401 262.937 24.0841C261.545 25.8841 259.685 26.7841 257.357 26.7841C255.821 26.7841 254.441 26.4361 253.217 25.7401C251.993 25.0441 251.033 24.0361 250.337 22.7161C249.641 21.3961 249.293 19.8241 249.293 18.0001C249.293 16.0561 249.641 14.3761 250.337 12.9601C251.033 11.5441 252.005 10.4641 253.253 9.72007C254.501 8.97607 255.953 8.60407 257.609 8.60407C258.641 8.60407 259.529 8.79607 260.273 9.18007C261.041 9.54007 261.737 10.0441 262.361 10.6921V7.12872e-05H267.113V21.5281C267.113 22.3681 267.185 23.0761 267.329 23.6521C267.473 24.2041 267.701 24.7561 268.013 25.3081L264.161 26.8201ZM258.113 23.0041C259.529 23.0041 260.597 22.5601 261.317 21.6721C262.061 20.7601 262.433 19.5481 262.433 18.0361V17.3881C262.433 15.9721 262.073 14.7841 261.353 13.8241C260.657 12.8641 259.625 12.3841 258.257 12.3841C256.889 12.3841 255.845 12.8641 255.125 13.8241C254.405 14.7841 254.045 16.1761 254.045 18.0001C254.045 19.6321 254.393 20.8801 255.089 21.7441C255.785 22.5841 256.793 23.0041 258.113 23.0041Z" fill="url(#paint0_linear_24_902)"/>
<defs>
<linearGradient id="paint0_linear_24_902" x1="-1.25977" y1="26.4241" x2="333.074" y2="86.7667" gradientUnits="userSpaceOnUse">
<stop stop-color="#1D8D94"/>
<stop offset="1" stop-color="#91D2A3"/>
</linearGradient>
</defs>
</svg>
