<svg width="86" height="143" viewBox="0 0 86 143" fill="none" xmlns="http://www.w3.org/2000/svg">
<path d="M0 1.41438C0 0.626769 0.638626 -0.0129614 1.42612 0.000171658C17.455 0.267482 33.0967 5.03663 46.5586 13.7767C60.4194 22.7758 71.3752 35.5991 78.1003 50.6948C84.8254 65.7905 87.0316 82.5116 84.4519 98.835C81.9464 114.688 75.0309 129.507 64.5095 141.602C63.9926 142.196 63.0899 142.243 62.5043 141.717C61.9188 141.19 61.8721 140.289 62.3887 139.694C72.5415 128.009 79.2152 113.699 81.6346 98.3898C84.1283 82.6109 81.9957 66.4476 75.495 51.8554C68.9942 37.2633 58.4039 24.8679 45.0054 16.169C32.006 7.72907 16.9037 3.11981 1.42609 2.85278C0.638596 2.8392 0 2.202 0 1.41438Z" fill="url(#paint0_linear_208_168)"/>
<defs>
<linearGradient id="paint0_linear_208_168" x1="4.19754e-06" y1="-0.0117209" x2="71.7589" y2="140.834" gradientUnits="userSpaceOnUse">
<stop stop-color="#2A3342"/>
<stop offset="1" stop-color="#40A578"/>
</linearGradient>
</defs>
</svg>
