<svg width="289" height="35" viewBox="0 0 289 35" fill="none" xmlns="http://www.w3.org/2000/svg">
<path d="M12.2762 26.7841C8.38823 26.7841 5.36423 25.6441 3.20423 23.3641C1.06823 21.0841 0.00023438 17.8921 0.00023438 13.7881C0.00023438 9.70807 1.04423 6.54007 3.13223 4.28407C5.22023 2.00407 8.17223 0.864071 11.9882 0.864071C13.7162 0.864071 15.3002 1.16407 16.7402 1.76407C18.2042 2.36407 19.3682 3.19207 20.2322 4.24807L18.3602 7.48807C17.4962 6.57607 16.5842 5.90407 15.6242 5.47207C14.6882 5.01607 13.4762 4.78807 11.9882 4.78807C9.70823 4.78807 7.95623 5.58007 6.73224 7.16407C5.50823 8.72407 4.89623 10.9321 4.89623 13.7881C4.89623 16.6441 5.54423 18.8761 6.84023 20.4841C8.13623 22.0681 9.97223 22.8601 12.3482 22.8601C13.5962 22.8601 14.6882 22.6561 15.6242 22.2481C16.5602 21.8401 17.4242 21.1801 18.2162 20.2681L21.0242 22.9321C20.0642 24.1081 18.7922 25.0441 17.2082 25.7401C15.6482 26.4361 14.0042 26.7841 12.2762 26.7841ZM36.6589 26.7841C36.2509 26.0641 35.9509 25.3201 35.7589 24.5521C35.5909 23.7601 35.5069 22.8721 35.5069 21.8881V16.0921C35.5069 13.6681 34.4989 12.4561 32.4829 12.4561C31.2829 12.4561 30.3109 12.9241 29.5669 13.8601C28.8469 14.7961 28.4869 15.9841 28.4869 17.4241V26.4241H23.7349V7.12872e-05H28.4869V10.8721C29.1829 10.1761 29.9749 9.62407 30.8629 9.21607C31.7509 8.80807 32.6989 8.60407 33.7069 8.60407C38.0749 8.60407 40.2589 11.1001 40.2589 16.0921V21.7801C40.2589 23.1001 40.4989 24.2401 40.9789 25.2001L36.6589 26.7841ZM51.2645 26.7841C49.7765 26.7841 48.4445 26.4361 47.2685 25.7401C46.0925 25.0441 45.1685 24.0361 44.4965 22.7161C43.8245 21.3961 43.4885 19.8241 43.4885 18.0001C43.4885 16.0561 43.8245 14.3761 44.4965 12.9601C45.1925 11.5441 46.1525 10.4641 47.3765 9.72007C48.6245 8.97607 50.0765 8.60407 51.7325 8.60407C53.6765 8.60407 55.2965 9.33607 56.5925 10.8001V8.96407H61.1645V21.5281C61.1645 22.3681 61.2365 23.0641 61.3805 23.6161C61.5245 24.1681 61.7525 24.7201 62.0645 25.2721L58.2125 26.7841C57.4925 25.9921 57.0845 25.0921 56.9885 24.0841H56.9165C56.2445 24.9481 55.4165 25.6201 54.4325 26.1001C53.4725 26.5561 52.4165 26.7841 51.2645 26.7841ZM52.2365 23.0041C53.6285 23.0041 54.6845 22.5601 55.4045 21.6721C56.1245 20.7601 56.4845 19.5481 56.4845 18.0361V17.3881C56.4845 15.9961 56.1245 14.8201 55.4045 13.8601C54.7085 12.8761 53.7005 12.3841 52.3805 12.3841C51.0365 12.3841 50.0045 12.8641 49.2845 13.8241C48.5885 14.7841 48.2405 16.1761 48.2405 18.0001C48.2405 19.6321 48.5765 20.8801 49.2485 21.7441C49.9445 22.5841 50.9405 23.0041 52.2365 23.0041ZM78.2983 26.7841C77.8903 26.0641 77.5903 25.3201 77.3983 24.5521C77.2303 23.7601 77.1463 22.8721 77.1463 21.8881V16.0921C77.1463 13.6681 76.1383 12.4561 74.1223 12.4561C72.9223 12.4561 71.9503 12.9241 71.2063 13.8601C70.4863 14.7961 70.1263 15.9841 70.1263 17.4241V26.4241H65.3743V13.8601C65.3743 13.1401 65.3143 12.5161 65.1943 11.9881C65.0983 11.4601 64.8943 10.8721 64.5823 10.2241L68.7943 8.60407C69.0103 8.98807 69.2023 9.44407 69.3703 9.97207C69.5623 10.5001 69.6703 10.9561 69.6943 11.3401C70.3903 10.5241 71.2423 9.86407 72.2503 9.36007C73.2823 8.85607 74.3743 8.60407 75.5263 8.60407C77.7583 8.60407 79.3783 9.25207 80.3863 10.5481C81.3943 11.8201 81.8983 13.6681 81.8983 16.0921V21.7801C81.8983 23.1001 82.1383 24.2401 82.6183 25.2001L78.2983 26.7841ZM93.3567 34.2721C91.1967 34.2721 89.0847 33.7441 87.0207 32.6881L88.4247 29.2681C89.8887 30.0361 91.5327 30.4201 93.3567 30.4201C95.1567 30.4201 96.4167 29.9761 97.1367 29.0881C97.8567 28.2001 98.2167 26.9401 98.2167 25.3081V24.3361C97.6167 24.9841 96.8967 25.5001 96.0567 25.8841C95.2167 26.2441 94.2927 26.4241 93.2847 26.4241C90.8367 26.4241 88.8687 25.6561 87.3807 24.1201C85.8927 22.5601 85.1487 20.3521 85.1487 17.4961C85.1487 15.6001 85.4847 13.9801 86.1567 12.6361C86.8287 11.2921 87.7527 10.2721 88.9287 9.57607C90.1047 8.88007 91.4607 8.53207 92.9967 8.53207C95.3007 8.53207 97.2327 9.43207 98.7927 11.2321C98.9127 10.1761 99.3207 9.26407 100.017 8.49607L103.869 10.0081C103.557 10.5601 103.329 11.1121 103.185 11.6641C103.041 12.2161 102.969 12.9241 102.969 13.7881V24.8761C102.969 27.9481 102.141 30.2761 100.485 31.8601C98.8527 33.4681 96.4767 34.2721 93.3567 34.2721ZM94.1127 22.6441C95.4567 22.6441 96.4887 22.1641 97.2087 21.2041C97.9287 20.2201 98.2887 19.0321 98.2887 17.6401V17.2801C98.2887 15.7681 97.9167 14.5681 97.1727 13.6801C96.4527 12.7681 95.3847 12.3121 93.9687 12.3121C92.6487 12.3121 91.6407 12.7561 90.9447 13.6441C90.2487 14.5081 89.9007 15.7921 89.9007 17.4961C89.9007 19.2721 90.2487 20.5801 90.9447 21.4201C91.6647 22.2361 92.7207 22.6441 94.1127 22.6441ZM115.707 26.7841C112.827 26.7841 110.547 25.9801 108.867 24.3721C107.211 22.7641 106.383 20.5801 106.383 17.8201C106.383 16.0201 106.719 14.4241 107.391 13.0321C108.063 11.6401 109.059 10.5601 110.379 9.79207C111.699 9.00007 113.295 8.60407 115.167 8.60407C116.991 8.60407 118.575 8.98807 119.919 9.75607C121.263 10.5001 122.283 11.5321 122.979 12.8521C123.675 14.1481 124.023 15.6001 124.023 17.2081C124.023 18.0001 123.759 18.6121 123.231 19.0441C122.727 19.4521 122.019 19.6561 121.107 19.6561H111.099C111.099 20.6401 111.519 21.4321 112.359 22.0321C113.223 22.6321 114.339 22.9321 115.707 22.9321C116.835 22.9321 117.783 22.7761 118.551 22.4641C119.343 22.1281 120.039 21.6601 120.639 21.0601L123.015 23.5801C122.223 24.5881 121.203 25.3801 119.955 25.9561C118.707 26.5081 117.291 26.7841 115.707 26.7841ZM119.307 15.9481C119.307 14.8921 118.911 14.0401 118.119 13.3921C117.351 12.7201 116.367 12.3841 115.167 12.3841C114.015 12.3841 113.043 12.7201 112.251 13.3921C111.483 14.0401 111.099 14.8921 111.099 15.9481H119.307ZM136.745 5.04007C136.745 4.53607 136.577 4.14007 136.241 3.85207C136.097 3.70807 135.989 3.58807 135.917 3.49207C135.845 3.37207 135.809 3.20407 135.809 2.98807C135.809 2.84407 135.821 2.73607 135.845 2.66407C135.965 2.06407 136.241 1.57207 136.673 1.18807C137.129 0.780071 137.657 0.57607 138.257 0.57607C138.929 0.57607 139.517 0.79207 140.021 1.22407H144.917C148.277 1.22407 150.857 1.98007 152.657 3.49207C154.457 4.98007 155.357 7.06807 155.357 9.75607C155.357 12.4441 154.481 14.5441 152.729 16.0561C150.977 17.5681 148.445 18.3241 145.133 18.3241H141.569V26.4241H136.745V5.04007ZM145.025 14.1481C146.777 14.1481 148.121 13.7881 149.057 13.0681C149.993 12.3241 150.461 11.2201 150.461 9.75607C150.461 8.31607 149.993 7.23607 149.057 6.51607C148.121 5.77207 146.777 5.40007 145.025 5.40007H141.569V14.1481H145.025ZM164.046 26.7841C162.558 26.7841 161.226 26.4361 160.05 25.7401C158.874 25.0441 157.95 24.0361 157.278 22.7161C156.606 21.3961 156.27 19.8241 156.27 18.0001C156.27 16.0561 156.606 14.3761 157.278 12.9601C157.974 11.5441 158.934 10.4641 160.158 9.72007C161.406 8.97607 162.858 8.60407 164.514 8.60407C166.458 8.60407 168.078 9.33607 169.374 10.8001V8.96407H173.946V21.5281C173.946 22.3681 174.018 23.0641 174.162 23.6161C174.306 24.1681 174.534 24.7201 174.846 25.2721L170.994 26.7841C170.274 25.9921 169.866 25.0921 169.77 24.0841H169.698C169.026 24.9481 168.198 25.6201 167.214 26.1001C166.254 26.5561 165.198 26.7841 164.046 26.7841ZM165.018 23.0041C166.41 23.0041 167.466 22.5601 168.186 21.6721C168.906 20.7601 169.266 19.5481 169.266 18.0361V17.3881C169.266 15.9961 168.906 14.8201 168.186 13.8601C167.49 12.8761 166.482 12.3841 165.162 12.3841C163.818 12.3841 162.786 12.8641 162.066 13.8241C161.37 14.7841 161.022 16.1761 161.022 18.0001C161.022 19.6321 161.358 20.8801 162.03 21.7441C162.726 22.5841 163.722 23.0041 165.018 23.0041ZM186.112 26.7841C184.408 26.7841 182.8 26.4841 181.288 25.8841C179.8 25.2601 178.492 24.3721 177.364 23.2201L180.028 20.3761C180.844 21.2401 181.768 21.9001 182.8 22.3561C183.832 22.8121 184.936 23.0401 186.112 23.0401C186.856 23.0401 187.42 22.9321 187.804 22.7161C188.188 22.4761 188.38 22.1521 188.38 21.7441C188.38 21.4321 188.296 21.1681 188.128 20.9521C187.984 20.7361 187.648 20.5081 187.12 20.2681C186.592 20.0281 185.788 19.7401 184.708 19.4041C182.332 18.6601 180.652 17.8561 179.668 16.9921C178.684 16.1041 178.192 14.9521 178.192 13.5361C178.192 11.9761 178.816 10.7641 180.064 9.90007C181.312 9.03607 183.064 8.60407 185.32 8.60407C187.864 8.60407 190.156 9.32407 192.196 10.7641L190.576 13.8601C189.568 13.3081 188.656 12.9241 187.84 12.7081C187.024 12.4681 186.172 12.3481 185.284 12.3481C184.492 12.3481 183.904 12.4561 183.52 12.6721C183.136 12.8641 182.944 13.1521 182.944 13.5361C182.944 13.8481 183.04 14.1121 183.232 14.3281C183.448 14.5201 183.808 14.7241 184.312 14.9401C184.816 15.1561 185.584 15.4201 186.616 15.7321C188.248 16.2361 189.52 16.7521 190.432 17.2801C191.368 17.8081 192.052 18.4321 192.484 19.1521C192.916 19.8721 193.132 20.7721 193.132 21.8521C193.132 23.3401 192.508 24.5401 191.26 25.4521C190.012 26.3401 188.296 26.7841 186.112 26.7841ZM203.479 26.7841C201.775 26.7841 200.167 26.4841 198.655 25.8841C197.167 25.2601 195.859 24.3721 194.731 23.2201L197.395 20.3761C198.211 21.2401 199.135 21.9001 200.167 22.3561C201.199 22.8121 202.303 23.0401 203.479 23.0401C204.223 23.0401 204.787 22.9321 205.171 22.7161C205.555 22.4761 205.747 22.1521 205.747 21.7441C205.747 21.4321 205.663 21.1681 205.495 20.9521C205.351 20.7361 205.015 20.5081 204.487 20.2681C203.959 20.0281 203.155 19.7401 202.075 19.4041C199.699 18.6601 198.019 17.8561 197.035 16.9921C196.051 16.1041 195.559 14.9521 195.559 13.5361C195.559 11.9761 196.183 10.7641 197.431 9.90007C198.679 9.03607 200.431 8.60407 202.687 8.60407C205.231 8.60407 207.523 9.32407 209.563 10.7641L207.943 13.8601C206.935 13.3081 206.023 12.9241 205.207 12.7081C204.391 12.4681 203.539 12.3481 202.651 12.3481C201.859 12.3481 201.271 12.4561 200.887 12.6721C200.503 12.8641 200.311 13.1521 200.311 13.5361C200.311 13.8481 200.407 14.1121 200.599 14.3281C200.815 14.5201 201.175 14.7241 201.679 14.9401C202.183 15.1561 202.951 15.4201 203.983 15.7321C205.615 16.2361 206.887 16.7521 207.799 17.2801C208.735 17.8081 209.419 18.4321 209.851 19.1521C210.283 19.8721 210.499 20.7721 210.499 21.8521C210.499 23.3401 209.875 24.5401 208.627 25.4521C207.379 26.3401 205.663 26.7841 203.479 26.7841ZM218.262 26.7841C217.518 26.7841 216.954 26.6281 216.57 26.3161C216.21 26.0041 216.03 25.5601 216.03 24.9841C216.03 24.7681 216.042 24.6001 216.066 24.4801L216.102 24.2641L211.746 8.96407H216.642L218.874 19.2961L221.646 9.72007C221.766 9.33607 221.994 9.06007 222.33 8.89207C222.666 8.70007 223.158 8.60407 223.806 8.60407C224.646 8.60407 225.234 8.73607 225.57 9.00007C225.93 9.26407 226.11 9.66007 226.11 10.1881C226.11 10.4281 226.098 10.6081 226.074 10.7281L225.93 11.5201L228.126 19.2961L230.322 8.96407H235.218L230.862 24.2641L230.898 24.4801C230.922 24.6001 230.934 24.7681 230.934 24.9841C230.934 25.5601 230.742 26.0041 230.358 26.3161C229.998 26.6281 229.446 26.7841 228.702 26.7841C227.934 26.7841 227.358 26.6521 226.974 26.3881C226.59 26.1241 226.326 25.7281 226.182 25.2001L223.482 15.6961L220.782 25.2001C220.638 25.7281 220.374 26.1241 219.99 26.3881C219.606 26.6521 219.03 26.7841 218.262 26.7841ZM245.074 26.8201C243.274 26.8201 241.69 26.4481 240.322 25.7041C238.978 24.9361 237.934 23.8681 237.19 22.5001C236.47 21.1081 236.11 19.5121 236.11 17.7121C236.11 15.9121 236.47 14.3281 237.19 12.9601C237.934 11.5681 238.978 10.5001 240.322 9.75607C241.69 8.98807 243.274 8.60407 245.074 8.60407C246.874 8.60407 248.446 8.98807 249.79 9.75607C251.158 10.5001 252.202 11.5681 252.922 12.9601C253.666 14.3281 254.038 15.9121 254.038 17.7121C254.038 19.5121 253.666 21.1081 252.922 22.5001C252.202 23.8681 251.158 24.9361 249.79 25.7041C248.446 26.4481 246.874 26.8201 245.074 26.8201ZM245.074 22.9681C246.442 22.9681 247.474 22.5121 248.17 21.6001C248.866 20.6641 249.214 19.3681 249.214 17.7121C249.214 16.0561 248.866 14.7721 248.17 13.8601C247.474 12.9241 246.442 12.4561 245.074 12.4561C243.706 12.4561 242.674 12.9241 241.978 13.8601C241.282 14.7721 240.934 16.0561 240.934 17.7121C240.934 19.3681 241.282 20.6641 241.978 21.6001C242.674 22.5121 243.706 22.9681 245.074 22.9681ZM257.363 13.8601C257.363 13.1401 257.303 12.5161 257.183 11.9881C257.087 11.4601 256.883 10.8721 256.571 10.2241L260.783 8.60407C260.999 8.98807 261.191 9.44407 261.359 9.97207C261.551 10.5001 261.659 10.9561 261.683 11.3401C262.331 10.4281 263.003 9.74407 263.699 9.28807C264.419 8.83207 265.235 8.60407 266.147 8.60407C266.867 8.60407 267.491 8.70007 268.019 8.89207C268.571 9.08407 269.147 9.40807 269.747 9.86407L267.983 13.1401C267.575 12.9001 267.203 12.7321 266.867 12.6361C266.531 12.5161 266.159 12.4561 265.751 12.4561C264.503 12.4561 263.579 12.8401 262.979 13.6081C262.403 14.3761 262.115 15.5401 262.115 17.1001V26.4241H257.363V13.8601ZM284.798 26.8201C284.102 26.0521 283.694 25.1401 283.574 24.0841C282.182 25.8841 280.322 26.7841 277.994 26.7841C276.458 26.7841 275.078 26.4361 273.854 25.7401C272.63 25.0441 271.67 24.0361 270.974 22.7161C270.278 21.3961 269.93 19.8241 269.93 18.0001C269.93 16.0561 270.278 14.3761 270.974 12.9601C271.67 11.5441 272.642 10.4641 273.89 9.72007C275.138 8.97607 276.59 8.60407 278.246 8.60407C279.278 8.60407 280.166 8.79607 280.91 9.18007C281.678 9.54007 282.374 10.0441 282.998 10.6921V7.12872e-05H287.75V21.5281C287.75 22.3681 287.822 23.0761 287.966 23.6521C288.11 24.2041 288.338 24.7561 288.65 25.3081L284.798 26.8201ZM278.75 23.0041C280.166 23.0041 281.234 22.5601 281.954 21.6721C282.698 20.7601 283.07 19.5481 283.07 18.0361V17.3881C283.07 15.9721 282.71 14.7841 281.99 13.8241C281.294 12.8641 280.262 12.3841 278.894 12.3841C277.526 12.3841 276.482 12.8641 275.762 13.8241C275.042 14.7841 274.682 16.1761 274.682 18.0001C274.682 19.6321 275.03 20.8801 275.726 21.7441C276.422 22.5841 277.43 23.0041 278.75 23.0041Z" fill="url(#paint0_linear_24_930)"/>
<defs>
<linearGradient id="paint0_linear_24_930" x1="-1.25977" y1="26.4241" x2="357.162" y2="96.127" gradientUnits="userSpaceOnUse">
<stop stop-color="#1D8D94"/>
<stop offset="1" stop-color="#91D2A3"/>
</linearGradient>
</defs>
</svg>
