<svg width="191" height="191" viewBox="0 0 191 191" fill="none" xmlns="http://www.w3.org/2000/svg">
<g clip-path="url(#clip0_208_85)">
<path d="M76.4001 0H61.1201V7.64H76.4001V0Z" fill="#ABABAB"/>
<path d="M91.6799 0H99.3199V7.64H114.6V15.28H91.6799V0Z" fill="#ABABAB"/>
<path d="M122.24 0H129.88V84.04H122.24V68.76H114.6V76.4H106.957V68.76H99.3201V61.12H91.6801V38.2H84.0401V22.92H61.1201V15.28H76.4001V7.64H84.0401V15.28H91.6801V22.92H114.6V30.56H99.3201V53.48H106.957V45.84H114.6V61.12H122.24V38.2H114.6V30.56H122.24V0Z" fill="#ABABAB"/>
<path d="M0 0V53.48H53.48V0H0ZM45.84 45.84H7.64V7.64H45.84V45.84Z" fill="#ABABAB"/>
<path d="M137.52 0V53.48H191V0H137.52ZM183.36 45.84H145.16V7.64H183.36V45.84Z" fill="#ABABAB"/>
<path d="M38.2 15.2793H15.28V38.1993H38.2V15.2793Z" fill="#ABABAB"/>
<path d="M175.72 15.2793H152.8V38.1993H175.72V15.2793Z" fill="#ABABAB"/>
<path d="M61.1201 30.5605H76.4001V45.8405H68.7601V38.2005H61.1201V30.5605Z" fill="#ABABAB"/>
<path d="M61.1201 45.8398H68.7601V53.4798H76.4001V45.8398H84.0401V61.1198H91.6801V68.7598H99.3201V76.3998H91.6801V84.0398H84.0401V68.7598H76.4001V61.1198H61.1201V45.8398Z" fill="#ABABAB"/>
<path d="M53.48 61.1191H38.2V68.7591H53.48V61.1191Z" fill="#ABABAB"/>
<path d="M160.44 61.1191H152.8V68.7591H160.44V61.1191Z" fill="#ABABAB"/>
<path d="M168.08 61.1191H175.72V76.3991H191V99.3191H175.72V84.0391H168.08V61.1191Z" fill="#ABABAB"/>
<path d="M191 61.1191H183.36V68.7591H191V61.1191Z" fill="#ABABAB"/>
<path d="M22.9199 68.7598H7.63989V76.3998H22.9199V68.7598Z" fill="#ABABAB"/>
<path d="M38.2001 68.7598H30.5601V76.3998H38.2001V68.7598Z" fill="#ABABAB"/>
<path d="M7.64 76.4004H0V84.0404H7.64V76.4004Z" fill="#ABABAB"/>
<path d="M53.4801 76.4004H45.8401V84.0404H53.4801V76.4004Z" fill="#ABABAB"/>
<path d="M15.2799 84.0391H30.5599V99.3191H22.9199V106.959H15.2799V99.3191H7.63989V91.6791H15.2799V84.0391Z" fill="#ABABAB"/>
<path d="M45.84 84.0391H38.2V91.6791H45.84V84.0391Z" fill="#ABABAB"/>
<path d="M122.24 84.0391H114.6V91.6791H122.24V84.0391Z" fill="#ABABAB"/>
<path d="M53.4801 91.6797H45.8401V99.3197H53.4801V91.6797Z" fill="#ABABAB"/>
<path d="M7.64 99.3203H0V129.88H7.64V99.3203Z" fill="#ABABAB"/>
<path d="M38.2001 99.3203H30.5601V106.963H38.2001V99.3203Z" fill="#ABABAB"/>
<path d="M30.5599 106.961H22.9199V114.601H30.5599V106.961Z" fill="#ABABAB"/>
<path d="M53.4801 106.961H45.8401V114.601H53.4801V106.961Z" fill="#ABABAB"/>
<path d="M61.1201 106.961H68.7601V114.601H76.4001V129.881H68.7601V137.521H61.1201V106.961Z" fill="#ABABAB"/>
<path d="M160.437 106.961H145.16V114.601H160.437V106.961Z" fill="#ABABAB"/>
<path d="M191 106.961H175.72V114.601H191V106.961Z" fill="#ABABAB"/>
<path d="M38.2001 114.6H30.5601V122.24H38.2001V114.6Z" fill="#ABABAB"/>
<path d="M22.92 122.24H15.28V129.883H22.92V122.24Z" fill="#ABABAB"/>
<path d="M53.48 122.24H38.2V129.883H53.48V122.24Z" fill="#ABABAB"/>
<path d="M84.0399 129.881H76.3999V137.521H84.0399V129.881Z" fill="#ABABAB"/>
<path d="M191 129.879V122.239H175.72V114.599H160.44V122.239H129.88V114.599H137.52V106.959H145.16V99.3191H160.44V106.959H168.08V84.0391H160.44V76.3991H152.8V84.0391H145.16V76.3991H152.8V68.7591H145.16V61.1191H137.52V84.0391H129.88V106.959H114.6V91.6791H106.957V106.959H99.3169V84.0391H91.6769V99.3191H84.0369V84.0391H61.1169V91.6791H68.7569V106.959H76.3999V114.599H84.0399V106.959H91.6799V114.599H84.0399V129.879H91.6799V137.519H99.3199V122.239H106.96V137.519H114.6V129.879H122.24V137.519H114.6V145.159H106.957V168.079H91.6799V175.719H106.957V183.359H91.6799V190.999H129.88V183.359H122.24V175.719H114.6V152.799H122.24V160.439H129.88V168.079H137.52V160.439H160.44V168.079H168.08V160.439H175.72V152.799H168.08V137.519H160.44V129.879H191ZM122.24 122.239H114.6V114.599H122.24V122.239ZM152.8 152.799H129.88V129.879H152.8V152.799Z" fill="#ABABAB"/>
<path d="M91.68 137.52H84.04V152.8H91.68V137.52Z" fill="#ABABAB"/>
<path d="M145.163 137.52H137.52V145.162H145.163V137.52Z" fill="#ABABAB"/>
<path d="M191 137.52H183.36V152.8H191V137.52Z" fill="#ABABAB"/>
<path d="M0 137.52V191H53.48V137.52H0ZM45.84 183.36H7.64V145.16H45.84V183.36Z" fill="#ABABAB"/>
<path d="M61.1201 145.16H76.4001V160.44H84.0401V168.08H76.4001V175.72H68.7601V152.8H61.1201V145.16Z" fill="#ABABAB"/>
<path d="M38.2 152.801H15.28V175.721H38.2V152.801Z" fill="#ABABAB"/>
<path d="M99.3199 152.801H91.6799V160.441H99.3199V152.801Z" fill="#ABABAB"/>
<path d="M191 160.439H183.36V190.999H191V160.439Z" fill="#ABABAB"/>
<path d="M129.883 168.08H122.24V175.72H129.883V168.08Z" fill="#ABABAB"/>
<path d="M137.52 168.08H152.8V175.72H168.08V191H160.44V183.36H145.16V191H137.52V168.08Z" fill="#ABABAB"/>
<path d="M175.72 168.08H168.08V175.72H175.72V168.08Z" fill="#ABABAB"/>
<path d="M91.68 175.721H84.04V183.364H91.68V175.721Z" fill="#ABABAB"/>
<path d="M76.4 183.359H68.76V190.999H76.4V183.359Z" fill="#ABABAB"/>
</g>
<defs>
<clipPath id="clip0_208_85">
<rect width="191" height="191" fill="white"/>
</clipPath>
</defs>
</svg>
